# xmcd
#
# Track frame offsets: 
#        150
#        17374
#        40179
#        63963
#        84630
#        97585
#        122565
#        145766
#        163641
#        185025
#        208335
#        227866
#        247466
#        274148
#        297784
#
# Disc length: 4313 seconds
#
# Revision: 1
# Processed by: cddbd v1.5.1PL0 Copyright (c) Steve Scherf et al.
# Submitted via: ExactAudioCopy v0.95a4
#
DISCID=d510d70f
DTITLE=齐秦 - 经典金曲精选Vol1
DYEAR=2001
DGENRE=Other
TTITLE0=大约在冬季
TTITLE1=冬雨
TTITLE2=外面的世界
TTITLE3=花祭
TTITLE4=又见溜溜的她
TTITLE5=狼
TTITLE6=原来的我
TTITLE7=齐秦_08
TTITLE8=太阳雨
TTITLE9=空白
TTITLE10=让我孤独的时候还能够想着你
TTITLE11=九个太阳
TTITLE12=哑口
TTITLE13=残酷的温柔
TTITLE14=狼II（巡行）
EXTD=
EXTT0=
EXTT1=
EXTT2=
EXTT3=
EXTT4=
EXTT5=
EXTT6=
EXTT7=
EXTT8=
EXTT9=
EXTT10=
EXTT11=
EXTT12=
EXTT13=
EXTT14=
PLAYORDER=
